<svg id="visual" viewBox="0 0 900 600" width="900" height="600" xmlns="http://www.w3.org/2000/svg" xmlns:xlink="http://www.w3.org/1999/xlink" version="1.1"><rect x="0" y="0" width="900" height="600" fill="#83b5db"></rect><path d="M0 311L15 320.7C30 330.3 60 349.7 90 348.2C120 346.7 150 324.3 180 317.3C210 310.3 240 318.7 270 326.8C300 335 330 343 360 351.5C390 360 420 369 450 360.7C480 352.3 510 326.7 540 325.7C570 324.7 600 348.3 630 361.5C660 374.7 690 377.3 720 365.2C750 353 780 326 810 327C840 328 870 357 885 371.5L900 386L900 601L885 601C870 601 840 601 810 601C780 601 750 601 720 601C690 601 660 601 630 601C600 601 570 601 540 601C510 601 480 601 450 601C420 601 390 601 360 601C330 601 300 601 270 601C240 601 210 601 180 601C150 601 120 601 90 601C60 601 30 601 15 601L0 601Z" fill="#69faed"></path><path d="M0 357L15 357.8C30 358.7 60 360.3 90 360.3C120 360.3 150 358.7 180 367.2C210 375.7 240 394.3 270 393.5C300 392.7 330 372.3 360 359C390 345.7 420 339.3 450 337.7C480 336 510 339 540 353.8C570 368.7 600 395.3 630 399.3C660 403.3 690 384.7 720 384.3C750 384 780 402 810 412.2C840 422.3 870 424.7 885 425.8L900 427L900 601L885 601C870 601 840 601 810 601C780 601 750 601 720 601C690 601 660 601 630 601C600 601 570 601 540 601C510 601 480 601 450 601C420 601 390 601 360 601C330 601 300 601 270 601C240 601 210 601 180 601C150 601 120 601 90 601C60 601 30 601 15 601L0 601Z" fill="#00e6fc"></path><path d="M0 441L15 442C30 443 60 445 90 440.2C120 435.3 150 423.7 180 410.2C210 396.7 240 381.3 270 377.7C300 374 330 382 360 393.8C390 405.7 420 421.3 450 421.5C480 421.7 510 406.3 540 407.8C570 409.3 600 427.7 630 431C660 434.3 690 422.7 720 409.8C750 397 780 383 810 389.8C840 396.7 870 424.3 885 438.2L900 452L900 601L885 601C870 601 840 601 810 601C780 601 750 601 720 601C690 601 660 601 630 601C600 601 570 601 540 601C510 601 480 601 450 601C420 601 390 601 360 601C330 601 300 601 270 601C240 601 210 601 180 601C150 601 120 601 90 601C60 601 30 601 15 601L0 601Z" fill="#00d0ff"></path><path d="M0 417L15 415.2C30 413.3 60 409.7 90 413.3C120 417 150 428 180 436C210 444 240 449 270 450.2C300 451.3 330 448.7 360 440.2C390 431.7 420 417.3 450 413.5C480 409.7 510 416.3 540 417.3C570 418.3 600 413.7 630 423C660 432.3 690 455.7 720 455C750 454.3 780 429.7 810 420.5C840 411.3 870 417.7 885 420.8L900 424L900 601L885 601C870 601 840 601 810 601C780 601 750 601 720 601C690 601 660 601 630 601C600 601 570 601 540 601C510 601 480 601 450 601C420 601 390 601 360 601C330 601 300 601 270 601C240 601 210 601 180 601C150 601 120 601 90 601C60 601 30 601 15 601L0 601Z" fill="#31b5ff"></path><path d="M0 463L15 465.3C30 467.7 60 472.3 90 477.3C120 482.3 150 487.7 180 482.2C210 476.7 240 460.3 270 457.5C300 454.7 330 465.3 360 471.7C390 478 420 480 450 476.3C480 472.7 510 463.3 540 465C570 466.7 600 479.3 630 477C660 474.7 690 457.3 720 449.8C750 442.3 780 444.7 810 452C840 459.3 870 471.7 885 477.8L900 484L900 601L885 601C870 601 840 601 810 601C780 601 750 601 720 601C690 601 660 601 630 601C600 601 570 601 540 601C510 601 480 601 450 601C420 601 390 601 360 601C330 601 300 601 270 601C240 601 210 601 180 601C150 601 120 601 90 601C60 601 30 601 15 601L0 601Z" fill="#7598f6"></path><path d="M0 477L15 479.8C30 482.7 60 488.3 90 495.5C120 502.7 150 511.3 180 511.2C210 511 240 502 270 497C300 492 330 491 360 489.5C390 488 420 486 450 490.7C480 495.3 510 506.7 540 507C570 507.3 600 496.7 630 496.2C660 495.7 690 505.3 720 506C750 506.7 780 498.3 810 495.2C840 492 870 494 885 495L900 496L900 601L885 601C870 601 840 601 810 601C780 601 750 601 720 601C690 601 660 601 630 601C600 601 570 601 540 601C510 601 480 601 450 601C420 601 390 601 360 601C330 601 300 601 270 601C240 601 210 601 180 601C150 601 120 601 90 601C60 601 30 601 15 601L0 601Z" fill="#a475d6"></path><path d="M0 554L15 553C30 552 60 550 90 547.2C120 544.3 150 540.7 180 541C210 541.3 240 545.7 270 541.7C300 537.7 330 525.3 360 523.3C390 521.3 420 529.7 450 532.3C480 535 510 532 540 526.8C570 521.7 600 514.3 630 510.7C660 507 690 507 720 508.7C750 510.3 780 513.7 810 519.2C840 524.7 870 532.3 885 536.2L900 540L900 601L885 601C870 601 840 601 810 601C780 601 750 601 720 601C690 601 660 601 630 601C600 601 570 601 540 601C510 601 480 601 450 601C420 601 390 601 360 601C330 601 300 601 270 601C240 601 210 601 180 601C150 601 120 601 90 601C60 601 30 601 15 601L0 601Z" fill="#c04da4"></path><path d="M0 569L15 569.3C30 569.7 60 570.3 90 567.2C120 564 150 557 180 556.2C210 555.3 240 560.7 270 560.5C300 560.3 330 554.7 360 552.7C390 550.7 420 552.3 450 551.8C480 551.3 510 548.7 540 548.7C570 548.7 600 551.3 630 553.3C660 555.3 690 556.7 720 555C750 553.3 780 548.7 810 551.8C840 555 870 566 885 571.5L900 577L900 601L885 601C870 601 840 601 810 601C780 601 750 601 720 601C690 601 660 601 630 601C600 601 570 601 540 601C510 601 480 601 450 601C420 601 390 601 360 601C330 601 300 601 270 601C240 601 210 601 180 601C150 601 120 601 90 601C60 601 30 601 15 601L0 601Z" fill="#c62368"></path></svg>