<svg id="visual" viewBox="0 0 900 600" width="900" height="600" xmlns="http://www.w3.org/2000/svg" xmlns:xlink="http://www.w3.org/1999/xlink" version="1.1"><rect x="0" y="0" width="900" height="600" fill="#200330"></rect><path d="M0 414L100 354L200 362L300 365L400 396L500 384L600 358L700 384L800 348L900 408L900 601L800 601L700 601L600 601L500 601L400 601L300 601L200 601L100 601L0 601Z" fill="#420087"></path><path d="M0 399L100 384L200 400L300 450L400 429L500 414L600 430L700 407L800 385L900 398L900 601L800 601L700 601L600 601L500 601L400 601L300 601L200 601L100 601L0 601Z" fill="#411c98"></path><path d="M0 447L100 408L200 469L300 414L400 470L500 449L600 431L700 471L800 441L900 444L900 601L800 601L700 601L600 601L500 601L400 601L300 601L200 601L100 601L0 601Z" fill="#3f2fa8"></path><path d="M0 490L100 448L200 445L300 458L400 453L500 472L600 488L700 468L800 440L900 487L900 601L800 601L700 601L600 601L500 601L400 601L300 601L200 601L100 601L0 601Z" fill="#3b3fb8"></path><path d="M0 493L100 467L200 510L300 471L400 502L500 466L600 478L700 504L800 487L900 469L900 601L800 601L700 601L600 601L500 601L400 601L300 601L200 601L100 601L0 601Z" fill="#354fc8"></path><path d="M0 496L100 539L200 523L300 539L400 540L500 530L600 505L700 520L800 499L900 518L900 601L800 601L700 601L600 601L500 601L400 601L300 601L200 601L100 601L0 601Z" fill="#2d5ed7"></path><path d="M0 536L100 534L200 529L300 527L400 539L500 522L600 542L700 522L800 521L900 526L900 601L800 601L700 601L600 601L500 601L400 601L300 601L200 601L100 601L0 601Z" fill="#216de6"></path><path d="M0 549L100 564L200 581L300 566L400 559L500 558L600 572L700 563L800 566L900 582L900 601L800 601L700 601L600 601L500 601L400 601L300 601L200 601L100 601L0 601Z" fill="#0a7cf5"></path></svg>