<svg id="visual" viewBox="0 0 900 600" width="900" height="600" xmlns="http://www.w3.org/2000/svg" xmlns:xlink="http://www.w3.org/1999/xlink" version="1.1"><rect x="0" y="0" width="900" height="600" fill="#140021"></rect><path d="M0 439L41 439L41 315L82 315L82 380L123 380L123 461L164 461L164 410L205 410L205 219L245 219L245 376L286 376L286 255L327 255L327 285L368 285L368 332L409 332L409 337L450 337L450 283L491 283L491 349L532 349L532 290L573 290L573 277L614 277L614 379L655 379L655 381L695 381L695 354L736 354L736 363L777 363L777 232L818 232L818 499L859 499L859 398L900 398L900 419L900 601L900 601L859 601L859 601L818 601L818 601L777 601L777 601L736 601L736 601L695 601L695 601L655 601L655 601L614 601L614 601L573 601L573 601L532 601L532 601L491 601L491 601L450 601L450 601L409 601L409 601L368 601L368 601L327 601L327 601L286 601L286 601L245 601L245 601L205 601L205 601L164 601L164 601L123 601L123 601L82 601L82 601L41 601L41 601L0 601Z" fill="#9900ff"></path><path d="M0 322L41 322L41 356L82 356L82 267L123 267L123 504L164 504L164 343L205 343L205 272L245 272L245 350L286 350L286 441L327 441L327 384L368 384L368 498L409 498L409 293L450 293L450 398L491 398L491 414L532 414L532 454L573 454L573 397L614 397L614 403L655 403L655 360L695 360L695 289L736 289L736 337L777 337L777 364L818 364L818 336L859 336L859 283L900 283L900 426L900 601L900 601L859 601L859 601L818 601L818 601L777 601L777 601L736 601L736 601L695 601L695 601L655 601L655 601L614 601L614 601L573 601L573 601L532 601L532 601L491 601L491 601L450 601L450 601L409 601L409 601L368 601L368 601L327 601L327 601L286 601L286 601L245 601L245 601L205 601L205 601L164 601L164 601L123 601L123 601L82 601L82 601L41 601L41 601L0 601Z" fill="#8e00ec"></path><path d="M0 370L41 370L41 371L82 371L82 445L123 445L123 346L164 346L164 370L205 370L205 346L245 346L245 312L286 312L286 460L327 460L327 482L368 482L368 476L409 476L409 422L450 422L450 514L491 514L491 351L532 351L532 438L573 438L573 430L614 430L614 372L655 372L655 395L695 395L695 324L736 324L736 446L777 446L777 466L818 466L818 337L859 337L859 372L900 372L900 322L900 601L900 601L859 601L859 601L818 601L818 601L777 601L777 601L736 601L736 601L695 601L695 601L655 601L655 601L614 601L614 601L573 601L573 601L532 601L532 601L491 601L491 601L450 601L450 601L409 601L409 601L368 601L368 601L327 601L327 601L286 601L286 601L245 601L245 601L205 601L205 601L164 601L164 601L123 601L123 601L82 601L82 601L41 601L41 601L0 601Z" fill="#8200d9"></path><path d="M0 400L41 400L41 533L82 533L82 443L123 443L123 471L164 471L164 388L205 388L205 488L245 488L245 541L286 541L286 509L327 509L327 422L368 422L368 500L409 500L409 458L450 458L450 457L491 457L491 524L532 524L532 392L573 392L573 514L614 514L614 482L655 482L655 391L695 391L695 373L736 373L736 465L777 465L777 464L818 464L818 426L859 426L859 452L900 452L900 522L900 601L900 601L859 601L859 601L818 601L818 601L777 601L777 601L736 601L736 601L695 601L695 601L655 601L655 601L614 601L614 601L573 601L573 601L532 601L532 601L491 601L491 601L450 601L450 601L409 601L409 601L368 601L368 601L327 601L327 601L286 601L286 601L245 601L245 601L205 601L205 601L164 601L164 601L123 601L123 601L82 601L82 601L41 601L41 601L0 601Z" fill="#7700c6"></path><path d="M0 425L41 425L41 534L82 534L82 469L123 469L123 521L164 521L164 422L205 422L205 550L245 550L245 434L286 434L286 547L327 547L327 421L368 421L368 439L409 439L409 478L450 478L450 414L491 414L491 535L532 535L532 555L573 555L573 518L614 518L614 423L655 423L655 551L695 551L695 455L736 455L736 450L777 450L777 464L818 464L818 485L859 485L859 457L900 457L900 527L900 601L900 601L859 601L859 601L818 601L818 601L777 601L777 601L736 601L736 601L695 601L695 601L655 601L655 601L614 601L614 601L573 601L573 601L532 601L532 601L491 601L491 601L450 601L450 601L409 601L409 601L368 601L368 601L327 601L327 601L286 601L286 601L245 601L245 601L205 601L205 601L164 601L164 601L123 601L123 601L82 601L82 601L41 601L41 601L0 601Z" fill="#6c00b4"></path><path d="M0 548L41 548L41 514L82 514L82 458L123 458L123 568L164 568L164 552L205 552L205 515L245 515L245 560L286 560L286 481L327 481L327 571L368 571L368 477L409 477L409 541L450 541L450 573L491 573L491 465L532 465L532 493L573 493L573 504L614 504L614 517L655 517L655 542L695 542L695 517L736 517L736 470L777 470L777 480L818 480L818 526L859 526L859 527L900 527L900 487L900 601L900 601L859 601L859 601L818 601L818 601L777 601L777 601L736 601L736 601L695 601L695 601L655 601L655 601L614 601L614 601L573 601L573 601L532 601L532 601L491 601L491 601L450 601L450 601L409 601L409 601L368 601L368 601L327 601L327 601L286 601L286 601L245 601L245 601L205 601L205 601L164 601L164 601L123 601L123 601L82 601L82 601L41 601L41 601L0 601Z" fill="#6100a2"></path><path d="M0 538L41 538L41 528L82 528L82 509L123 509L123 579L164 579L164 510L205 510L205 543L245 543L245 567L286 567L286 567L327 567L327 585L368 585L368 557L409 557L409 576L450 576L450 550L491 550L491 538L532 538L532 580L573 580L573 523L614 523L614 505L655 505L655 576L695 576L695 526L736 526L736 523L777 523L777 530L818 530L818 532L859 532L859 573L900 573L900 555L900 601L900 601L859 601L859 601L818 601L818 601L777 601L777 601L736 601L736 601L695 601L695 601L655 601L655 601L614 601L614 601L573 601L573 601L532 601L532 601L491 601L491 601L450 601L450 601L409 601L409 601L368 601L368 601L327 601L327 601L286 601L286 601L245 601L245 601L205 601L205 601L164 601L164 601L123 601L123 601L82 601L82 601L41 601L41 601L0 601Z" fill="#560090"></path></svg>