<svg id="visual" viewBox="0 0 900 600" width="900" height="600" xmlns="http://www.w3.org/2000/svg" xmlns:xlink="http://www.w3.org/1999/xlink" version="1.1"><rect x="0" y="0" width="900" height="600" fill="#00121a"></rect><path d="M0 418L16.7 426.3C33.3 434.7 66.7 451.3 100 458C133.3 464.7 166.7 461.3 200 453C233.3 444.7 266.7 431.3 300 430C333.3 428.7 366.7 439.3 400 454C433.3 468.7 466.7 487.3 500 492.3C533.3 497.3 566.7 488.7 600 494.8C633.3 501 666.7 522 700 530.5C733.3 539 766.7 535 800 526C833.3 517 866.7 503 883.3 496L900 489L900 601L883.3 601C866.7 601 833.3 601 800 601C766.7 601 733.3 601 700 601C666.7 601 633.3 601 600 601C566.7 601 533.3 601 500 601C466.7 601 433.3 601 400 601C366.7 601 333.3 601 300 601C266.7 601 233.3 601 200 601C166.7 601 133.3 601 100 601C66.7 601 33.3 601 16.7 601L0 601Z" fill="#0066FF" stroke-linecap="round" stroke-linejoin="miter"></path></svg>