<svg id="visual" viewBox="0 0 900 600" width="900" height="600" xmlns="http://www.w3.org/2000/svg" xmlns:xlink="http://www.w3.org/1999/xlink" version="1.1"><rect x="0" y="0" width="900" height="600" fill="#001220"></rect><path d="M0 326L25 328C50 330 100 334 150 334C200 334 250 330 300 337C350 344 400 362 450 360.2C500 358.3 550 336.7 600 323C650 309.3 700 303.7 750 304.2C800 304.7 850 311.3 875 314.7L900 318L900 601L875 601C850 601 800 601 750 601C700 601 650 601 600 601C550 601 500 601 450 601C400 601 350 601 300 601C250 601 200 601 150 601C100 601 50 601 25 601L0 601Z" fill="#f169fa"></path><path d="M0 378L25 388.5C50 399 100 420 150 412.3C200 404.7 250 368.3 300 365.8C350 363.3 400 394.7 450 398C500 401.3 550 376.7 600 378.5C650 380.3 700 408.7 750 407.5C800 406.3 850 375.7 875 360.3L900 345L900 601L875 601C850 601 800 601 750 601C700 601 650 601 600 601C550 601 500 601 450 601C400 601 350 601 300 601C250 601 200 601 150 601C100 601 50 601 25 601L0 601Z" fill="#df5df1"></path><path d="M0 455L25 447.5C50 440 100 425 150 414C200 403 250 396 300 393.2C350 390.3 400 391.7 450 403.3C500 415 550 437 600 441.5C650 446 700 433 750 418.2C800 403.3 850 386.7 875 378.3L900 370L900 601L875 601C850 601 800 601 750 601C700 601 650 601 600 601C550 601 500 601 450 601C400 601 350 601 300 601C250 601 200 601 150 601C100 601 50 601 25 601L0 601Z" fill="#cd51e9"></path><path d="M0 493L25 488C50 483 100 473 150 472C200 471 250 479 300 472.7C350 466.3 400 445.7 450 435.5C500 425.3 550 425.7 600 438C650 450.3 700 474.7 750 481.7C800 488.7 850 478.3 875 473.2L900 468L900 601L875 601C850 601 800 601 750 601C700 601 650 601 600 601C550 601 500 601 450 601C400 601 350 601 300 601C250 601 200 601 150 601C100 601 50 601 25 601L0 601Z" fill="#bb46e0"></path><path d="M0 466L25 469.7C50 473.3 100 480.7 150 482C200 483.3 250 478.7 300 476.3C350 474 400 474 450 470.5C500 467 550 460 600 467.8C650 475.7 700 498.3 750 498.5C800 498.7 850 476.3 875 465.2L900 454L900 601L875 601C850 601 800 601 750 601C700 601 650 601 600 601C550 601 500 601 450 601C400 601 350 601 300 601C250 601 200 601 150 601C100 601 50 601 25 601L0 601Z" fill="#a83bd8"></path><path d="M0 513L25 519.5C50 526 100 539 150 545.3C200 551.7 250 551.3 300 541C350 530.7 400 510.3 450 505.7C500 501 550 512 600 517C650 522 700 521 750 520.2C800 519.3 850 518.7 875 518.3L900 518L900 601L875 601C850 601 800 601 750 601C700 601 650 601 600 601C550 601 500 601 450 601C400 601 350 601 300 601C250 601 200 601 150 601C100 601 50 601 25 601L0 601Z" fill="#962fcf"></path><path d="M0 539L25 542.2C50 545.3 100 551.7 150 553.8C200 556 250 554 300 551.3C350 548.7 400 545.3 450 542.7C500 540 550 538 600 536.5C650 535 700 534 750 534.7C800 535.3 850 537.7 875 538.8L900 540L900 601L875 601C850 601 800 601 750 601C700 601 650 601 600 601C550 601 500 601 450 601C400 601 350 601 300 601C250 601 200 601 150 601C100 601 50 601 25 601L0 601Z" fill="#8224c7"></path></svg>