<svg id="visual" viewBox="0 0 900 600" width="900" height="600" xmlns="http://www.w3.org/2000/svg" xmlns:xlink="http://www.w3.org/1999/xlink" version="1.1"><rect x="0" y="0" width="900" height="600" fill="#001220"></rect><path d="M0 55L18.8 53C37.7 51 75.3 47 112.8 49.3C150.3 51.7 187.7 60.3 225.2 58.3C262.7 56.3 300.3 43.7 337.8 44.3C375.3 45 412.7 59 450.2 60.7C487.7 62.3 525.3 51.7 562.8 45C600.3 38.3 637.7 35.7 675.2 39.2C712.7 42.7 750.3 52.3 787.8 53.5C825.3 54.7 862.7 47.3 881.3 43.7L900 40L900 601L881.3 601C862.7 601 825.3 601 787.8 601C750.3 601 712.7 601 675.2 601C637.7 601 600.3 601 562.8 601C525.3 601 487.7 601 450.2 601C412.7 601 375.3 601 337.8 601C300.3 601 262.7 601 225.2 601C187.7 601 150.3 601 112.8 601C75.3 601 37.7 601 18.8 601L0 601Z" fill="#fa7268"></path><path d="M0 128L18.8 127.3C37.7 126.7 75.3 125.3 112.8 121.3C150.3 117.3 187.7 110.7 225.2 113.5C262.7 116.3 300.3 128.7 337.8 126.5C375.3 124.3 412.7 107.7 450.2 106.3C487.7 105 525.3 119 562.8 125.8C600.3 132.7 637.7 132.3 675.2 134.3C712.7 136.3 750.3 140.7 787.8 138.7C825.3 136.7 862.7 128.3 881.3 124.2L900 120L900 601L881.3 601C862.7 601 825.3 601 787.8 601C750.3 601 712.7 601 675.2 601C637.7 601 600.3 601 562.8 601C525.3 601 487.7 601 450.2 601C412.7 601 375.3 601 337.8 601C300.3 601 262.7 601 225.2 601C187.7 601 150.3 601 112.8 601C75.3 601 37.7 601 18.8 601L0 601Z" fill="#f56967"></path><path d="M0 182L18.8 176.8C37.7 171.7 75.3 161.3 112.8 156.7C150.3 152 187.7 153 225.2 153.5C262.7 154 300.3 154 337.8 159.7C375.3 165.3 412.7 176.7 450.2 183.2C487.7 189.7 525.3 191.3 562.8 190.5C600.3 189.7 637.7 186.3 675.2 183.2C712.7 180 750.3 177 787.8 173.3C825.3 169.7 862.7 165.3 881.3 163.2L900 161L900 601L881.3 601C862.7 601 825.3 601 787.8 601C750.3 601 712.7 601 675.2 601C637.7 601 600.3 601 562.8 601C525.3 601 487.7 601 450.2 601C412.7 601 375.3 601 337.8 601C300.3 601 262.7 601 225.2 601C187.7 601 150.3 601 112.8 601C75.3 601 37.7 601 18.8 601L0 601Z" fill="#ef5f67"></path><path d="M0 246L18.8 248.2C37.7 250.3 75.3 254.7 112.8 251C150.3 247.3 187.7 235.7 225.2 234C262.7 232.3 300.3 240.7 337.8 239.3C375.3 238 412.7 227 450.2 230.2C487.7 233.3 525.3 250.7 562.8 249.8C600.3 249 637.7 230 675.2 230C712.7 230 750.3 249 787.8 254.2C825.3 259.3 862.7 250.7 881.3 246.3L900 242L900 601L881.3 601C862.7 601 825.3 601 787.8 601C750.3 601 712.7 601 675.2 601C637.7 601 600.3 601 562.8 601C525.3 601 487.7 601 450.2 601C412.7 601 375.3 601 337.8 601C300.3 601 262.7 601 225.2 601C187.7 601 150.3 601 112.8 601C75.3 601 37.7 601 18.8 601L0 601Z" fill="#e95667"></path><path d="M0 328L18.8 327.8C37.7 327.7 75.3 327.3 112.8 326.8C150.3 326.3 187.7 325.7 225.2 322.7C262.7 319.7 300.3 314.3 337.8 314.5C375.3 314.7 412.7 320.3 450.2 321C487.7 321.7 525.3 317.3 562.8 315C600.3 312.7 637.7 312.3 675.2 306.7C712.7 301 750.3 290 787.8 285.2C825.3 280.3 862.7 281.7 881.3 282.3L900 283L900 601L881.3 601C862.7 601 825.3 601 787.8 601C750.3 601 712.7 601 675.2 601C637.7 601 600.3 601 562.8 601C525.3 601 487.7 601 450.2 601C412.7 601 375.3 601 337.8 601C300.3 601 262.7 601 225.2 601C187.7 601 150.3 601 112.8 601C75.3 601 37.7 601 18.8 601L0 601Z" fill="#e34c67"></path><path d="M0 380L18.8 374.3C37.7 368.7 75.3 357.3 112.8 350.3C150.3 343.3 187.7 340.7 225.2 338C262.7 335.3 300.3 332.7 337.8 332.8C375.3 333 412.7 336 450.2 339.8C487.7 343.7 525.3 348.3 562.8 355C600.3 361.7 637.7 370.3 675.2 375.8C712.7 381.3 750.3 383.7 787.8 383.8C825.3 384 862.7 382 881.3 381L900 380L900 601L881.3 601C862.7 601 825.3 601 787.8 601C750.3 601 712.7 601 675.2 601C637.7 601 600.3 601 562.8 601C525.3 601 487.7 601 450.2 601C412.7 601 375.3 601 337.8 601C300.3 601 262.7 601 225.2 601C187.7 601 150.3 601 112.8 601C75.3 601 37.7 601 18.8 601L0 601Z" fill="#dc4267"></path><path d="M0 392L18.8 399C37.7 406 75.3 420 112.8 427.7C150.3 435.3 187.7 436.7 225.2 431.7C262.7 426.7 300.3 415.3 337.8 408.5C375.3 401.7 412.7 399.3 450.2 403.5C487.7 407.7 525.3 418.3 562.8 423.2C600.3 428 637.7 427 675.2 424.7C712.7 422.3 750.3 418.7 787.8 415.7C825.3 412.7 862.7 410.3 881.3 409.2L900 408L900 601L881.3 601C862.7 601 825.3 601 787.8 601C750.3 601 712.7 601 675.2 601C637.7 601 600.3 601 562.8 601C525.3 601 487.7 601 450.2 601C412.7 601 375.3 601 337.8 601C300.3 601 262.7 601 225.2 601C187.7 601 150.3 601 112.8 601C75.3 601 37.7 601 18.8 601L0 601Z" fill="#d53867"></path><path d="M0 481L18.8 479C37.7 477 75.3 473 112.8 475C150.3 477 187.7 485 225.2 489.3C262.7 493.7 300.3 494.3 337.8 488C375.3 481.7 412.7 468.3 450.2 462C487.7 455.7 525.3 456.3 562.8 464.2C600.3 472 637.7 487 675.2 489.2C712.7 491.3 750.3 480.7 787.8 480.7C825.3 480.7 862.7 491.3 881.3 496.7L900 502L900 601L881.3 601C862.7 601 825.3 601 787.8 601C750.3 601 712.7 601 675.2 601C637.7 601 600.3 601 562.8 601C525.3 601 487.7 601 450.2 601C412.7 601 375.3 601 337.8 601C300.3 601 262.7 601 225.2 601C187.7 601 150.3 601 112.8 601C75.3 601 37.7 601 18.8 601L0 601Z" fill="#ce2e68"></path><path d="M0 551L18.8 551.2C37.7 551.3 75.3 551.7 112.8 547.5C150.3 543.3 187.7 534.7 225.2 529.7C262.7 524.7 300.3 523.3 337.8 529C375.3 534.7 412.7 547.3 450.2 547C487.7 546.7 525.3 533.3 562.8 524.8C600.3 516.3 637.7 512.7 675.2 517.8C712.7 523 750.3 537 787.8 543.3C825.3 549.7 862.7 548.3 881.3 547.7L900 547L900 601L881.3 601C862.7 601 825.3 601 787.8 601C750.3 601 712.7 601 675.2 601C637.7 601 600.3 601 562.8 601C525.3 601 487.7 601 450.2 601C412.7 601 375.3 601 337.8 601C300.3 601 262.7 601 225.2 601C187.7 601 150.3 601 112.8 601C75.3 601 37.7 601 18.8 601L0 601Z" fill="#c62368"></path></svg>